#N canvas 451 88 873 899 10;
#X declare -lib bsaylor;
#X obj 277 141 delwrite~ left 46000;
#X obj 532 49 delwrite~ right 46000;
#X obj 499 -209 adc~ 1 2;
#X obj 357 -212 expr log($f1*1.718+1);
#X obj 563 -208 expr log($f1*1.718+1);
#X obj 604 477 loadbang;
#X obj 598 517 s lbang;
#N canvas 181 200 576 464 perfDryL 0;
#X obj 100 103 cnv 15 85 55 empty empty empty 20 12 0 14 -260097 -66577
0;
#X text 136 111 perfs;
#X obj 108 136 tgl 15 0 empty empty empty 17 7 0 10 -262144 -1 -1 0
1;
#X obj 377 118 metro 1000;
#X obj 150 -53 r numPerfsDryL;
#X obj 394 -75 r perTime;
#X obj 400 62 - 2000;
#X obj 262 53 r lbang;
#X msg 280 93 0;
#X text 105 113 on;
#X floatatom 137 133 5 0 0 0 - - -;
#X text 110 99 L dry;
#X obj 507 227 inlet~;
#X obj 498 326 outlet~;
#X msg 354 237 1;
#X obj 249 178 sel 0 1;
#X msg 225 275 0;
#X msg 272 274 1;
#X obj 458 -33 sel 0;
#X msg 484 11 1;
#X obj 254 -15 moses 0.5;
#X obj 452 226 vline~;
#X obj 496 276 *~;
#X obj 343 -55 t b f;
#X obj 411 32 / 1;
#X obj 388 -10 f;
#X obj 241 325 t b f;
#X obj 323 303 pipe 750;
#X msg 395 165 0 10 \, 1 10 15;
#X connect 2 0 15 0;
#X connect 3 0 28 0;
#X connect 4 0 2 0;
#X connect 4 0 10 0;
#X connect 4 0 20 0;
#X connect 5 0 25 1;
#X connect 6 0 3 1;
#X connect 7 0 8 0;
#X connect 8 0 2 0;
#X connect 8 0 15 0;
#X connect 12 0 22 0;
#X connect 14 0 21 0;
#X connect 15 0 16 0;
#X connect 15 1 17 0;
#X connect 16 0 26 0;
#X connect 17 0 27 0;
#X connect 18 0 19 0;
#X connect 19 0 24 1;
#X connect 20 0 23 0;
#X connect 20 1 24 1;
#X connect 21 0 22 1;
#X connect 22 0 13 0;
#X connect 23 0 25 0;
#X connect 23 1 18 0;
#X connect 24 0 6 0;
#X connect 25 0 24 0;
#X connect 26 0 14 0;
#X connect 26 1 3 0;
#X connect 27 0 3 0;
#X connect 28 0 21 0;
#X coords 0 -1 1 1 85 60 1 100 100;
#X restore 336 64 pd perfDryL;
#N canvas 831 283 576 464 perfDryL 0;
#X obj 100 103 cnv 15 85 55 empty empty empty 20 12 0 14 -260097 -66577
0;
#X text 136 111 perfs;
#X obj 108 136 tgl 15 0 empty empty empty 17 7 0 10 -262144 -1 -1 0
2;
#X obj 375 118 metro 1000;
#X obj 293 42 r lbang;
#X msg 311 73 0;
#X text 105 113 on;
#X floatatom 137 133 5 0 0 0 - - -;
#X obj 507 227 inlet~;
#X obj 498 326 outlet~;
#X text 110 99 R dry;
#X obj 113 22 r numPerfsDryR;
#X msg 315 297 1;
#X msg 185 303 0;
#X msg 289 332 1;
#X obj 240 281 sel 0 1;
#X obj 456 223 vline~;
#X obj 496 277 *~;
#X obj 446 -48 r perTime;
#X obj 452 89 - 2000;
#X obj 510 -6 sel 0;
#X msg 536 38 1;
#X obj 306 12 moses 0.5;
#X obj 395 -28 t b f;
#X obj 463 59 / 1;
#X obj 440 17 f;
#X obj 218 365 t b f;
#X obj 357 316 pipe 750;
#X msg 401 165 0 10 \, 1 10 15;
#X connect 2 0 15 0;
#X connect 3 0 28 0;
#X connect 4 0 5 0;
#X connect 5 0 2 0;
#X connect 5 0 15 0;
#X connect 8 0 17 0;
#X connect 11 0 2 0;
#X connect 11 0 7 0;
#X connect 11 0 22 0;
#X connect 12 0 16 0;
#X connect 13 0 26 0;
#X connect 14 0 27 0;
#X connect 15 0 13 0;
#X connect 15 1 14 0;
#X connect 16 0 17 1;
#X connect 17 0 9 0;
#X connect 18 0 25 1;
#X connect 19 0 3 1;
#X connect 20 0 21 0;
#X connect 21 0 24 1;
#X connect 22 0 23 0;
#X connect 22 1 24 1;
#X connect 23 0 25 0;
#X connect 23 1 20 0;
#X connect 24 0 19 0;
#X connect 25 0 24 0;
#X connect 26 0 12 0;
#X connect 26 1 3 0;
#X connect 27 0 3 0;
#X connect 28 0 16 0;
#X coords 0 -1 1 1 85 60 1 100 100;
#X restore 542 -36 pd perfDryL;
#X obj 205 133 r perTime;
#X obj 169 195 expr log($f1*1.718+1);
#N canvas 391 198 576 464 perfDryL 0;
#X obj 100 103 cnv 15 85 55 empty empty empty 20 12 0 14 -260097 -66577
0;
#X text 136 111 perfs;
#X obj 108 136 tgl 15 0 empty empty empty 17 7 0 10 -262144 -1 -1 0
1;
#X obj 375 118 metro 1000;
#X obj 293 42 r lbang;
#X msg 319 80 0;
#X text 105 113 on;
#X floatatom 137 133 5 0 0 0 - - -;
#X obj 507 227 inlet~;
#X obj 498 326 outlet~;
#X text 110 99 L fb;
#X obj 90 12 r numPerfsFbL;
#X msg 316 184 1;
#X obj 165 265 sel 0 1;
#X msg 186 307 0;
#X msg 235 312 1;
#X obj 456 223 vline~;
#X obj 496 276 *~;
#X obj 404 -65 r perTime;
#X obj 410 72 - 2000;
#X obj 468 -23 sel 0;
#X msg 494 21 1;
#X obj 264 -5 moses 0.5;
#X obj 353 -45 t b f;
#X obj 421 42 / 1;
#X obj 398 0 f;
#X obj 138 346 t b f;
#X obj 320 303 pipe 1500;
#X msg 401 166 0 10 \, 1 10 15;
#X connect 2 0 13 0;
#X connect 3 0 28 0;
#X connect 4 0 5 0;
#X connect 5 0 2 0;
#X connect 5 0 13 0;
#X connect 8 0 17 0;
#X connect 11 0 2 0;
#X connect 11 0 7 0;
#X connect 11 0 22 0;
#X connect 12 0 16 0;
#X connect 13 0 14 0;
#X connect 13 1 15 0;
#X connect 14 0 26 0;
#X connect 15 0 27 0;
#X connect 16 0 17 1;
#X connect 17 0 9 0;
#X connect 18 0 25 1;
#X connect 19 0 3 1;
#X connect 20 0 21 0;
#X connect 21 0 24 1;
#X connect 22 0 23 0;
#X connect 22 1 24 1;
#X connect 23 0 25 0;
#X connect 23 1 20 0;
#X connect 24 0 19 0;
#X connect 25 0 24 0;
#X connect 26 0 12 0;
#X connect 26 1 3 0;
#X connect 27 0 3 0;
#X connect 28 0 16 0;
#X coords 0 -1 1 1 85 60 1 100 100;
#X restore 326 232 pd perfDryL;
#N canvas 400 174 576 464 perfDryL 0;
#X obj 100 103 cnv 15 85 55 empty empty empty 20 12 0 14 -260097 -66577
0;
#X text 136 111 perfs;
#X obj 108 136 tgl 15 0 empty empty empty 17 7 0 10 -262144 -1 -1 0
2;
#X obj 375 118 metro 1000;
#X obj 293 42 r lbang;
#X msg 311 73 0;
#X text 105 113 on;
#X floatatom 137 133 5 0 0 0 - - -;
#X obj 507 227 inlet~;
#X obj 498 326 outlet~;
#X text 110 99 R fb;
#X obj 98 -7 r numPerfsFbR;
#X msg 289 220 1;
#X obj 496 276 *~;
#X msg 213 306 0;
#X msg 263 331 1;
#X obj 216 255 sel 0 1;
#X obj 456 223 vline~;
#X obj 414 -55 r perTime;
#X obj 420 82 - 2000;
#X obj 478 -13 sel 0;
#X msg 504 31 1;
#X obj 293 7 moses 0.5;
#X obj 363 -35 t b f;
#X obj 431 52 / 1;
#X obj 408 10 f;
#X obj 299 160 t b f;
#X obj 350 322 pipe 1500;
#X msg 401 166 0 10 \, 0 10 15;
#X connect 2 0 16 0;
#X connect 3 0 28 0;
#X connect 4 0 5 0;
#X connect 5 0 2 0;
#X connect 5 0 16 0;
#X connect 8 0 13 0;
#X connect 11 0 2 0;
#X connect 11 0 7 0;
#X connect 11 0 22 0;
#X connect 12 0 17 0;
#X connect 13 0 9 0;
#X connect 14 0 26 0;
#X connect 15 0 27 0;
#X connect 16 0 14 0;
#X connect 16 1 15 0;
#X connect 17 0 13 1;
#X connect 18 0 25 1;
#X connect 19 0 3 1;
#X connect 20 0 21 0;
#X connect 21 0 24 1;
#X connect 22 0 23 0;
#X connect 22 1 24 1;
#X connect 23 0 25 0;
#X connect 23 1 20 0;
#X connect 24 0 19 0;
#X connect 25 0 24 0;
#X connect 26 0 12 0;
#X connect 26 1 3 0;
#X connect 27 0 3 0;
#X connect 28 0 17 0;
#X coords 0 -1 1 1 85 60 1 100 100;
#X restore 431 230 pd perfDryL;
#X obj 544 226 expr log($f1*1.718+1);
#X obj 103 62 s fbGainL;
#X obj 590 199 r fbGainR;
#X obj 164 83 s fbGainR;
#X obj 188 170 r fbGainL;
#X obj 169 53 s outGainL;
#X obj 209 107 s outGainR;
#X obj 383 -236 r dryGainL;
#X obj 569 -236 r dryGainR;
#X obj 11 104 s dryGainL;
#X obj 84 105 s dryGainR;
#X obj 23 381 expr log($f1*1.718+1);
#X obj 53 348 r outGainL;
#X obj 164 382 expr log($f1*1.718+1);
#X obj 190 426 *~;
#X obj 160 340 r outGainR;
#N canvas 170 149 1356 838 score 0;
#X obj 119 508 qlist;
#X msg -19 436 read scores/cycle31.txt;
#X msg 126 468 tempo 1 \, rewind \, bang;
#X obj 41 373 r init;
#X msg 260 480 rewind;
#X obj 100 101 cnv 15 130 150 empty empty empty 20 12 0 14 -262130
-66577 0;
#X text 115 99 start on cycle;
#X obj 196 150 tgl 30 0 empty empty empty 17 7 0 10 -262144 -1 -1 0
1;
#X text 126 151 Start/Stop;
#X obj 140 387 r cycle1Start;
#X obj 107 130 hradio 15 1 0 6 empty empty empty 0 -8 0 10 -262144
-1 -1 0;
#X obj 609 146 + 1;
#X obj 450 311 s cycle1Start;
#X obj 280 415 r stop;
#X obj 441 492 qlist;
#X msg 448 452 tempo 1 \, rewind \, bang;
#X obj 383 367 r init;
#X msg 582 464 rewind;
#X obj 602 399 r stop;
#X obj 466 392 r cycle2Start;
#X msg 346 417 read scores/cycle32.txt;
#X obj 564 313 s cycle2Start;
#X obj 648 313 s cycle3Start;
#X obj 741 315 s cycle4Start;
#X obj 829 320 s cycle5Start;
#X obj 897 332 s cycle6Start;
#X obj 764 503 qlist;
#X msg 771 463 tempo 1 \, rewind \, bang;
#X obj 706 378 r init;
#X msg 905 475 rewind;
#X obj 925 410 r stop;
#X obj 789 403 r cycle3Start;
#X msg 669 428 read scores/cycle33.txt;
#X obj 146 706 qlist;
#X msg 153 666 tempo 1 \, rewind \, bang;
#X obj 88 581 r init;
#X msg 287 678 rewind;
#X obj 307 613 r stop;
#X obj 489 702 qlist;
#X msg 496 662 tempo 1 \, rewind \, bang;
#X obj 431 577 r init;
#X msg 630 674 rewind;
#X obj 650 609 r stop;
#X obj 827 709 qlist;
#X msg 834 669 tempo 1 \, rewind \, bang;
#X obj 769 584 r init;
#X msg 968 681 rewind;
#X obj 988 616 r stop;
#X obj 171 606 r cycle4Start;
#X msg 45 633 read scores/cycle34.txt;
#X msg 394 627 read scores/cycle35.txt;
#X obj 514 602 r cycle5Start;
#X obj 852 610 r cycle6Start;
#X msg 732 634 read scores/cycle36.txt;
#X obj 150 290 sel 0 1;
#X obj 151 329 s lbang;
#X obj 92 288 s stsp;
#X obj 471 138 loadbang;
#X msg 512 194 0;
#X text 99 164 (5s startdelay);
#X text 109 212 delay;
#X obj 713 223 counter;
#X msg 810 221 0;
#X obj 778 258 sel 6;
#X obj 889 201 t b b;
#X msg 858 264 0;
#X obj 737 150 sel 0;
#X obj 696 186 metro 1000;
#X obj 79 340 s stop;
#X obj 700 260 gate 6;
#X obj 542 267 pipe 5000;
#X text 109 110 1;
#X text 124 110 2;
#X text 142 110 3;
#X text 154 111 4;
#X text 170 111 5;
#X text 184 112 6;
#X obj 149 191 nbx 1 50 -1e+37 1e+37 0 0 empty empty empty 0 -8 0 50
-204800 -258113 -1 0 256;
#X obj 241 50 r stopTgl;
#X msg 275 92 0;
#X msg 358 50 dryL 0 \; dryR 0 \; fbL 0 \; fbR 0 \; outL 0 \; outR
0 \; stockTrig 0 \;;
#X connect 1 0 0 0;
#X connect 2 0 0 0;
#X connect 3 0 1 0;
#X connect 4 0 0 0;
#X connect 7 0 54 0;
#X connect 7 0 56 0;
#X connect 7 0 66 0;
#X connect 7 0 67 0;
#X connect 9 0 2 0;
#X connect 10 0 11 0;
#X connect 11 0 69 0;
#X connect 13 0 4 0;
#X connect 15 0 14 0;
#X connect 16 0 20 0;
#X connect 17 0 14 0;
#X connect 18 0 17 0;
#X connect 19 0 15 0;
#X connect 20 0 14 0;
#X connect 27 0 26 0;
#X connect 28 0 32 0;
#X connect 29 0 26 0;
#X connect 30 0 29 0;
#X connect 31 0 27 0;
#X connect 32 0 26 0;
#X connect 34 0 33 0;
#X connect 35 0 49 0;
#X connect 36 0 33 0;
#X connect 37 0 36 0;
#X connect 39 0 38 0;
#X connect 40 0 50 0;
#X connect 41 0 38 0;
#X connect 42 0 41 0;
#X connect 44 0 43 0;
#X connect 45 0 53 0;
#X connect 46 0 43 0;
#X connect 47 0 46 0;
#X connect 48 0 34 0;
#X connect 49 0 33 0;
#X connect 50 0 38 0;
#X connect 51 0 39 0;
#X connect 52 0 44 0;
#X connect 53 0 43 0;
#X connect 54 0 55 0;
#X connect 54 0 68 0;
#X connect 54 0 80 0;
#X connect 54 1 70 0;
#X connect 57 0 58 0;
#X connect 58 0 10 0;
#X connect 61 0 63 0;
#X connect 61 0 77 0;
#X connect 62 0 67 0;
#X connect 63 0 64 0;
#X connect 64 0 65 0;
#X connect 64 1 62 0;
#X connect 65 0 61 3;
#X connect 66 0 65 0;
#X connect 67 0 61 0;
#X connect 69 0 12 0;
#X connect 69 1 21 0;
#X connect 69 2 22 0;
#X connect 69 3 23 0;
#X connect 69 4 24 0;
#X connect 69 5 25 0;
#X connect 70 0 69 1;
#X connect 78 0 79 0;
#X connect 79 0 7 0;
#X coords 0 -1 1 1 130 150 1 100 100;
#X restore 736 -166 pd score;
#N canvas 627 297 552 547 dryGateL 0;
#X obj 100 106 cnv 15 85 50 empty empty empty 20 12 0 14 -4032 -66577
0;
#X obj 340 51 inlet~;
#X obj 308 91 line~;
#X obj 348 129 *~;
#X obj 109 134 tgl 15 0 empty empty empty 17 7 0 10 -262144 -1 -1 0
1;
#X obj 182 27 r lbang;
#X msg 193 85 0;
#X obj 268 26 r dryR;
#X text 105 106 R dry gate;
#X obj 116 196 sel 0 1;
#X msg 120 234 0;
#X msg 177 234 1;
#X obj 377 465 outlet~;
#X obj 270 431 spigot~;
#X obj 429 376 tgl 15 0 empty empty empty 17 7 0 10 -262144 -1 -1 0
1;
#X obj 184 353 pipe 110;
#X msg 286 65 \$1 2;
#X connect 1 0 3 0;
#X connect 2 0 3 1;
#X connect 3 0 13 0;
#X connect 4 0 9 0;
#X connect 5 0 6 0;
#X connect 6 0 4 0;
#X connect 6 0 9 0;
#X connect 6 0 14 0;
#X connect 7 0 4 0;
#X connect 9 0 10 0;
#X connect 9 0 15 0;
#X connect 9 1 11 0;
#X connect 9 1 14 0;
#X connect 10 0 16 0;
#X connect 11 0 16 0;
#X connect 13 1 12 0;
#X connect 14 0 13 1;
#X connect 15 0 14 0;
#X connect 16 0 2 0;
#X coords 0 -1 1 1 85 60 1 100 100;
#X restore 508 -115 pd dryGateL;
#N canvas 147 335 450 521 dryGateL 0;
#X obj 100 106 cnv 15 85 50 empty empty empty 20 12 0 14 -4032 -66577
0;
#X obj 340 51 inlet~;
#X obj 347 435 outlet~;
#X obj 308 91 line~;
#X obj 348 129 *~;
#X obj 109 134 tgl 15 0 empty empty empty 17 7 0 10 -262144 -1 -1 0
1;
#X obj 268 26 r dryL;
#X obj 182 27 r lbang;
#X msg 193 85 0;
#X text 105 106 L dry gate;
#X obj 123 209 sel 0 1;
#X msg 159 299 0;
#X msg 216 299 1;
#X obj 235 392 spigot~;
#X obj 325 394 spigot~;
#X obj 399 346 tgl 15 0 empty empty empty 17 7 0 10 -262144 -1 -1 0
1;
#X obj 355 275 pipe 110;
#X msg 285 65 \$1 2;
#X connect 1 0 4 0;
#X connect 3 0 4 1;
#X connect 4 0 14 0;
#X connect 5 0 10 0;
#X connect 6 0 5 0;
#X connect 7 0 8 0;
#X connect 8 0 5 0;
#X connect 8 0 10 0;
#X connect 8 0 15 0;
#X connect 10 0 11 0;
#X connect 10 0 16 0;
#X connect 10 1 12 0;
#X connect 10 1 15 0;
#X connect 11 0 17 0;
#X connect 12 0 17 0;
#X connect 14 1 2 0;
#X connect 15 0 14 1;
#X connect 16 0 15 0;
#X connect 17 0 3 0;
#X coords 0 -1 1 1 85 60 1 100 100;
#X restore 334 0 pd dryGateL;
#N canvas 297 233 877 738 dryGateL 0;
#X obj 100 106 cnv 15 85 50 empty empty empty 20 12 0 14 -4032 -66577
0;
#X obj 340 51 inlet~;
#X obj 308 91 line~;
#X obj 348 129 *~;
#X obj 109 134 tgl 15 0 empty empty empty 17 7 0 10 -262144 -1 -1 0
1;
#X obj 182 27 r lbang;
#X msg 193 85 0;
#X obj 268 25 r fbL;
#X text 105 106 L fb gate;
#X obj 111 192 sel 0 1;
#X msg 111 245 0;
#X msg 168 245 1;
#X obj 397 485 outlet~;
#X obj 375 444 spigot~;
#X obj 449 396 tgl 15 0 empty empty empty 17 7 0 10 -262144 -1 -1 0
1;
#X obj 434 315 pipe 110;
#X msg 286 65 \$1 2;
#X connect 1 0 3 0;
#X connect 2 0 3 1;
#X connect 3 0 13 0;
#X connect 4 0 9 0;
#X connect 5 0 6 0;
#X connect 6 0 4 0;
#X connect 6 0 9 0;
#X connect 6 0 14 0;
#X connect 7 0 4 0;
#X connect 9 0 10 0;
#X connect 9 0 15 0;
#X connect 9 1 11 0;
#X connect 9 1 14 0;
#X connect 10 0 16 0;
#X connect 11 0 16 0;
#X connect 13 1 12 0;
#X connect 14 0 13 1;
#X connect 15 0 14 0;
#X connect 16 0 2 0;
#X coords 0 -1 1 1 85 60 1 100 100;
#X restore 397 300 pd dryGateL;
#N canvas 150 320 719 643 dryGateL 0;
#X obj 100 106 cnv 15 85 50 empty empty empty 20 12 0 14 -4032 -66577
0;
#X obj 340 51 inlet~;
#X obj 308 91 line~;
#X obj 348 129 *~;
#X obj 109 134 tgl 15 0 empty empty empty 17 7 0 10 -262144 -1 -1 0
1;
#X obj 182 27 r lbang;
#X msg 193 85 0;
#X obj 268 25 r fbR;
#X text 105 106 R fb gate;
#X obj 110 203 sel 0 1;
#X msg 114 241 0;
#X msg 158 259 1;
#X obj 387 475 outlet~;
#X obj 365 434 spigot~;
#X obj 439 386 tgl 15 0 empty empty empty 17 7 0 10 -262144 -1 -1 0
1;
#X obj 395 315 pipe 110;
#X msg 285 65 \$1 2;
#X connect 1 0 3 0;
#X connect 2 0 3 1;
#X connect 3 0 13 0;
#X connect 4 0 9 0;
#X connect 5 0 6 0;
#X connect 6 0 4 0;
#X connect 6 0 9 0;
#X connect 6 0 14 0;
#X connect 7 0 4 0;
#X connect 9 0 10 0;
#X connect 9 0 15 0;
#X connect 9 1 11 0;
#X connect 9 1 14 0;
#X connect 10 0 16 0;
#X connect 11 0 16 0;
#X connect 13 1 12 0;
#X connect 14 0 13 1;
#X connect 15 0 14 0;
#X connect 16 0 2 0;
#X coords 0 -1 1 1 85 60 1 100 100;
#X restore 541 252 pd dryGateL;
#N canvas 167 340 859 659 dryGateL 0;
#X obj 100 106 cnv 15 85 50 empty empty empty 20 12 0 14 -4032 -66577
0;
#X obj 340 51 inlet~;
#X obj 308 91 line~;
#X obj 348 129 *~;
#X obj 109 134 tgl 15 0 empty empty empty 17 7 0 10 -262144 -1 -1 0
1;
#X obj 182 27 r lbang;
#X msg 193 85 0;
#X text 105 106 L out gate;
#X obj 268 25 r outL;
#X obj 308 172 sel 0 1;
#X msg 101 228 0;
#X msg 158 228 1;
#X obj 417 505 outlet~;
#X obj 395 464 spigot~;
#X obj 469 416 tgl 15 0 empty empty empty 17 7 0 10 -262144 -1 -1 0
1;
#X obj 518 336 pipe 110;
#X msg 285 65 \$1 2;
#X connect 1 0 3 0;
#X connect 2 0 3 1;
#X connect 3 0 13 0;
#X connect 4 0 9 0;
#X connect 5 0 6 0;
#X connect 6 0 4 0;
#X connect 6 0 9 0;
#X connect 6 0 14 0;
#X connect 8 0 4 0;
#X connect 9 0 10 0;
#X connect 9 0 15 0;
#X connect 9 1 11 0;
#X connect 9 1 14 0;
#X connect 10 0 16 0;
#X connect 11 0 16 0;
#X connect 13 1 12 0;
#X connect 14 0 13 1;
#X connect 15 0 14 0;
#X connect 16 0 2 0;
#X coords 0 -1 1 1 85 60 1 100 100;
#X restore 12 200 pd dryGateL;
#N canvas 144 317 740 682 dryGateL 0;
#X obj 100 106 cnv 15 85 50 empty empty empty 20 12 0 14 -4032 -66577
0;
#X obj 340 51 inlet~;
#X obj 308 91 line~;
#X obj 348 129 *~;
#X obj 109 134 tgl 15 0 empty empty empty 17 7 0 10 -262144 -1 -1 0
1;
#X obj 182 27 r lbang;
#X msg 193 85 0;
#X text 105 106 R out gate;
#X obj 268 25 r outR;
#X obj 522 142 sel 0 1;
#X msg 122 254 0;
#X msg 179 254 1;
#X obj 407 495 outlet~;
#X obj 385 454 spigot~;
#X obj 548 358 tgl 15 0 empty empty empty 17 7 0 10 -262144 -1 -1 0
1;
#X obj 497 279 pipe 110;
#X msg 285 65 \$1 2;
#X connect 1 0 3 0;
#X connect 2 0 3 1;
#X connect 3 0 13 0;
#X connect 4 0 9 0;
#X connect 5 0 6 0;
#X connect 6 0 4 0;
#X connect 6 0 9 0;
#X connect 6 0 14 0;
#X connect 8 0 4 0;
#X connect 9 0 10 0;
#X connect 9 0 15 0;
#X connect 9 1 11 0;
#X connect 9 1 14 0;
#X connect 10 0 16 0;
#X connect 11 0 16 0;
#X connect 13 1 12 0;
#X connect 14 0 13 1;
#X connect 15 0 14 0;
#X connect 16 0 2 0;
#X coords 0 -1 1 1 85 60 1 100 100;
#X restore 108 233 pd dryGateL;
#N canvas 559 172 859 789 time 0;
#X obj 100 100 cnv 15 200 550 empty empty empty 20 12 0 14 -232576
-66577 0;
#X obj 338 71 r stsp;
#X obj 414 108 r subDiv;
#X obj 481 112 r bps;
#X obj 547 108 r perTime;
#X floatatom 402 243 5 0 0 0 - - -;
#X obj 423 180 expr ($f3/$f2)/$f1;
#X obj 496 303 metro;
#X obj 515 214 t b b f;
#X msg 668 201 0;
#X msg 481 266 1;
#X obj 744 144 sel 0 1;
#X obj 503 340 counter;
#X obj 540 408 % 4;
#X obj 604 372 r subDiv;
#X obj 503 469 sel 0;
#X obj 450 404 / 4;
#X floatatom 568 464 5 0 0 0 - - -;
#X obj 468 376 - 1;
#X obj 428 481 + 1;
#X obj 475 418 r bps;
#X obj 437 447 %;
#X obj 606 25 r numPeriods;
#X obj 442 24 r cycleNum;
#X obj 156 108 nbx 2 60 -1e+37 1e+37 0 0 empty empty empty 0 -8 0 60
-1 -258113 -1 4 256;
#X obj 519 23 r period;
#X text 106 124 Cycle;
#X text 109 203 Period;
#X text 110 273 Beat;
#X obj 157 177 nbx 2 60 -1e+37 1e+37 0 0 empty empty empty 0 -8 0 60
-1 -260097 -1 1 256;
#X obj 156 246 nbx 2 60 -1e+37 1e+37 0 0 empty empty empty 0 -8 0 60
-1 -257985 -1 1 256;
#X obj 585 172 / 1000;
#X obj 158 509 nbx 5 60 -1e+37 1e+37 0 0 empty empty empty 0 -8 0 24
-159808 -260097 -1 13.5 256;
#X obj 156 444 nbx 2 60 -1e+37 1e+37 0 0 empty empty empty 0 -8 0 60
-159808 -258113 -1 9 256;
#X text 100 530 PerLen(s);
#X text 105 466 NumPer;
#X obj 158 573 nbx 2 60 -1e+37 1e+37 0 0 empty empty empty 0 -8 0 60
-159808 -257985 -1 9 256;
#X text 116 598 bps;
#X obj 664 417 metro 1000;
#X obj 710 476 counter;
#X obj 727 553 % 60;
#X obj 654 577 / 60;
#X obj 654 628 i;
#X obj 155 314 nbx 2 60 -1e+37 1e+37 0 0 empty empty empty 0 -8 0 60
-16662 -4034 -1 0 256;
#X obj 155 379 nbx 2 60 -1e+37 1e+37 0 0 empty empty empty 0 -8 0 60
-16662 -4034 -1 0 256;
#X text 118 333 Min;
#X text 115 401 Sec;
#X obj 389 716 *~;
#X obj 438 672 line~;
#X obj 496 721 *~;
#X obj 545 677 line~;
#X msg 526 637 1 \, 0 75;
#X msg 419 632 1 \, 0 75;
#X obj 398 600 osc~ 2000;
#X obj 488 603 osc~ 1000;
#X obj 409 751 throw~ click;
#X obj 361 508 sel 1;
#X obj 310 721 *~;
#X obj 359 677 line~;
#X msg 340 637 1 \, 0 75;
#X obj 319 605 osc~ 4000;
#X obj 348 532 gate 2;
#X obj 434 535 + 1;
#X connect 1 0 11 0;
#X connect 2 0 6 0;
#X connect 3 0 6 1;
#X connect 3 0 36 0;
#X connect 4 0 6 2;
#X connect 4 0 31 0;
#X connect 6 0 5 0;
#X connect 6 0 8 0;
#X connect 7 0 12 0;
#X connect 8 0 10 0;
#X connect 8 1 9 0;
#X connect 8 2 7 1;
#X connect 9 0 7 0;
#X connect 9 0 12 3;
#X connect 9 0 38 0;
#X connect 9 0 39 3;
#X connect 10 0 7 0;
#X connect 10 0 38 0;
#X connect 11 0 9 0;
#X connect 12 0 18 0;
#X connect 13 0 15 0;
#X connect 13 0 17 0;
#X connect 13 0 62 0;
#X connect 14 0 13 1;
#X connect 14 0 16 1;
#X connect 15 0 52 0;
#X connect 15 1 51 0;
#X connect 16 0 21 0;
#X connect 18 0 13 0;
#X connect 18 0 16 0;
#X connect 19 0 30 0;
#X connect 19 0 56 0;
#X connect 20 0 21 1;
#X connect 21 0 19 0;
#X connect 22 0 33 0;
#X connect 23 0 24 0;
#X connect 25 0 29 0;
#X connect 31 0 32 0;
#X connect 38 0 39 0;
#X connect 39 0 40 0;
#X connect 39 0 41 0;
#X connect 40 0 44 0;
#X connect 41 0 42 0;
#X connect 42 0 43 0;
#X connect 47 0 55 0;
#X connect 48 0 47 1;
#X connect 49 0 55 0;
#X connect 50 0 49 1;
#X connect 51 0 50 0;
#X connect 52 0 48 0;
#X connect 53 0 47 0;
#X connect 54 0 49 0;
#X connect 56 0 61 1;
#X connect 57 0 55 0;
#X connect 58 0 57 1;
#X connect 59 0 58 0;
#X connect 60 0 57 0;
#X connect 61 0 59 0;
#X connect 62 0 61 0;
#X coords 0 -1 1 1 200 550 1 100 100;
#X restore 660 -11 pd time;
#X obj 234 433 catch~ click;
#X obj 254 85 s clickGain;
#X obj 341 451 r clickGain;
#X obj 272 479 expr log($f1*1.718+1);
#X obj 9 -209 cnv 15 350 200 empty empty empty 20 12 0 14 -257985 -66577
0;
#X obj 11 -157 vsl 15 128 0 1 0 0 empty empty empty 0 -9 0 10 -262144
-1 -1 10100 1;
#X obj 44 -156 vsl 15 128 0 1 0 0 empty empty empty 0 -9 0 10 -262144
-1 -1 10200 1;
#X obj 134 -157 vsl 15 128 0 1 0 0 empty empty empty 0 -9 0 10 -262144
-1 -1 12700 1;
#X obj 167 -156 vsl 15 128 0 1 0 0 empty empty empty 0 -9 0 10 -262144
-1 -1 12700 1;
#X obj 208 -155 vsl 15 128 0 1 0 0 empty empty empty 0 -9 0 10 -262144
-1 -1 12700 1;
#X obj 242 -156 vsl 15 128 0 1 0 0 empty empty empty 0 -9 0 10 -262144
-1 -1 12700 1;
#X obj 270 -157 vsl 15 128 0 1 0 0 empty empty empty 0 -9 0 10 -262144
-1 -1 12700 1;
#X text 12 -185 L;
#X text 44 -185 R;
#X text 137 -184 L;
#X text 169 -184 R;
#X text 150 -203 fb;
#X text 211 -183 L;
#X text 244 -183 R;
#X text 224 -202 out;
#X text 324 -185 click;
#X obj 723 -233 cnv 15 150 40 empty empty empty 20 12 0 14 -261234
-66577 0;
#X obj 679 -191 s init;
#X obj 737 -229 bng 30 250 50 0 empty empty empty 17 7 0 30 -262144
-1 -1;
#X text 772 -224 INIT;
#X obj 810 -227 tgl 30 0 empty empty empty 17 7 0 10 -262144 -1 -1
1 1;
#X text 843 -222 DSP;
#X msg 662 -163 \; pd dsp \$1;
#N canvas 144 269 924 658 distort 0;
#X obj 100 102 cnv 15 70 85 empty empty empty 20 12 0 14 -258113 -66577
0;
#X obj 214 21 inlet~;
#X obj 199 389 outlet~;
#X obj 116 119 knob 32 32 1 20000 0 0 empty empty empty 0 -8 0 8 -262144
-1 -1 0 1;
#X obj 220 59 *~ 1000;
#X obj 216 96 clip~ -1 1;
#X obj 375 75 env~;
#X obj 386 102 dbtorms;
#X obj 426 169 * 1.4142;
#X obj 218 141 *~ 1;
#X obj 212 192 clip~ -0.707 0.707;
#X text 328 262 copied from LandonPD;
#X obj 297 27 inlet;
#X text 119 100 dist;
#X floatatom 112 164 7 0 0 0 - - -;
#X msg 312 365 1;
#X obj 396 323 loadbang;
#X obj 295 220 limiter~;
#X obj 222 224 z~ 64;
#X obj 219 285 *~;
#X obj 144 335 spigot~;
#X floatatom 86 319 5 0 0 0 - - -;
#X obj 97 257 > 30;
#X obj 141 424 < 30;
#X obj 279 407 spigot~;
#X connect 1 0 4 0;
#X connect 1 0 6 0;
#X connect 1 0 24 0;
#X connect 3 0 4 1;
#X connect 3 0 14 0;
#X connect 3 0 22 0;
#X connect 3 0 23 0;
#X connect 4 0 5 0;
#X connect 5 0 9 0;
#X connect 6 0 7 0;
#X connect 7 0 8 0;
#X connect 8 0 9 1;
#X connect 9 0 10 0;
#X connect 10 0 17 0;
#X connect 10 0 18 0;
#X connect 12 0 3 0;
#X connect 15 0 3 0;
#X connect 16 0 15 0;
#X connect 17 0 19 1;
#X connect 18 0 19 0;
#X connect 19 0 20 0;
#X connect 20 1 2 0;
#X connect 22 0 21 0;
#X connect 22 0 20 1;
#X connect 23 0 24 1;
#X connect 24 1 2 0;
#X coords 0 -1 1 1 70 90 2 100 100;
#X restore 432 -138 pd distort;
#N canvas 759 327 753 657 midi 0;
#X obj 100 100 cnv 15 130 80 empty empty empty 20 12 0 14 -203904 -66577
0;
#X obj 276 27 notein;
#X obj 276 55 stripnote;
#X obj 275 100 sel 60 62 64;
#X obj 104 145 tgl 30 0 empty empty empty 17 7 0 10 -262144 -1 -1 0
1;
#X obj 150 144 tgl 30 0 empty empty empty 17 7 0 10 -262144 -1 -1 0
1;
#X obj 190 144 tgl 30 0 empty empty empty 17 7 0 10 -262144 -1 -1 0
1;
#X text 114 120 1;
#X text 159 119 2;
#X text 199 120 3;
#X obj 312 134 loadbang;
#X msg 367 195 0;
#X obj 117 287 sel 0 1;
#X obj 187 285 sel 0 1;
#X obj 274 292 sel 0 1;
#X obj 117 325 t b b;
#X msg 142 363 0;
#X msg 318 355 1;
#X obj 315 401 s dist;
#X obj 183 327 t b b;
#X msg 208 365 0;
#X obj 253 322 t b b;
#X msg 278 360 0;
#X text 137 102 MIDI DIST;
#X msg 130 443 500;
#X msg 170 447 1250;
#X msg 240 444 7500;
#X connect 1 0 2 0;
#X connect 1 1 2 1;
#X connect 2 0 3 0;
#X connect 3 0 4 0;
#X connect 3 1 5 0;
#X connect 3 2 6 0;
#X connect 4 0 12 0;
#X connect 5 0 13 0;
#X connect 6 0 14 0;
#X connect 10 0 11 0;
#X connect 11 0 6 0;
#X connect 11 0 5 0;
#X connect 11 0 4 0;
#X connect 12 0 17 0;
#X connect 12 1 15 0;
#X connect 13 0 17 0;
#X connect 13 1 19 0;
#X connect 14 0 17 0;
#X connect 14 1 21 0;
#X connect 15 0 24 0;
#X connect 15 1 16 0;
#X connect 16 0 5 0;
#X connect 16 0 6 0;
#X connect 17 0 18 0;
#X connect 19 0 25 0;
#X connect 19 1 20 0;
#X connect 20 0 4 0;
#X connect 20 0 6 0;
#X connect 21 0 26 0;
#X connect 21 1 22 0;
#X connect 22 0 4 0;
#X connect 22 0 5 0;
#X connect 24 0 18 0;
#X connect 25 0 18 0;
#X connect 26 0 18 0;
#X coords 0 -1 1 1 130 80 1 100 100;
#X restore 602 -119 pd midi;
#X obj 605 -156 r dist;
#X obj 71 -157 vsl 15 128 0 1 0 0 empty empty empty 0 -9 0 10 -262144
-1 -1 12700 1;
#X obj 104 -156 vsl 15 128 0 1 0 0 empty empty empty 0 -9 0 10 -262144
-1 -1 12700 1;
#X text 85 -204 dry;
#X text 72 -185 L;
#X text 104 -185 R;
#X text 19 -205 gain;
#X obj 413 131 expr log($f1*1.718+1);
#X obj 429 107 r dryOutL;
#X obj 464 74 expr log($f1*1.718+1);
#X obj 438 47 r dryOutR;
#X obj 42 22 s dryOutL;
#X obj 107 25 s dryOutR;
#X floatatom 214 273 5 0 0 0 - - -;
#X obj 51 426 *~ 0;
#X obj 190 474 *~ 0;
#X obj 422 -27 *~ 0;
#X obj 491 -15 *~ 0;
#X obj 265 255 *~ 0;
#X obj 513 213 *~ 0;
#X obj 476 -178 *~ 0;
#X obj 567 -178 *~ 0;
#X obj 304 211 *~ 1;
#X obj 431 209 *~ 1;
#X obj 274 170 delread~ left 10000;
#X obj 470 178 delread~ right 10000;
#N canvas 729 223 838 641 stockTalk 0;
#X obj 101 102 cnv 15 85 60 empty empty empty 20 12 0 14 -233017 -66577
0;
#X obj 290 145 soundfiler;
#X obj 546 327 lop~ 10;
#X obj 284 323 *;
#X obj 186 194 random 100000;
#X obj 191 220 / 100000;
#X obj 199 258 spigot;
#X obj 111 113 tgl 15 0 empty empty empty 17 7 0 10 -262144 -1 -1 0
1;
#X obj 377 369 line~;
#X floatatom 293 281 15 0 0 0 - - -;
#X obj 380 198 bng 15 250 50 0 empty empty empty 17 7 0 10 -262144
-1 -1;
#X obj 249 606 pack;
#X obj 260 362 t f b;
#X obj 281 402 random 72;
#X msg 585 214 \$1 500;
#X obj 470 364 hip~ 30;
#X floatatom 641 275 5 0 0 0 - - -;
#X obj 485 391 lop~ 15000;
#X obj 560 164 random 30;
#X obj 569 188 expr (($f1 + 1)/60) + 1.75;
#X obj 306 445 expr 200 + 10000 * 0.5 * (($f1+1)/3);
#X obj 479 129 metro 5000;
#X obj 619 66 random 2;
#X obj 553 252 spigot;
#X obj 543 280 line~;
#X floatatom 641 347 5 0 0 0 - - -;
#X obj 493 419 *~ 0;
#X obj 572 428 line;
#X msg 571 390 \$1 1000;
#X obj 685 268 pan~;
#X obj 699 75 random 90;
#X obj 706 154 line;
#X msg 699 111 \$1 1000;
#X obj 704 135 spigot;
#X floatatom 728 228 5 0 0 0 - - -;
#X obj 683 90 -45;
#X obj 582 588 *~ 0;
#X obj 693 580 *~ 0;
#X obj 588 541 r stockGain;
#X obj 346 67 r init;
#X text 114 135 stockTalk;
#X obj 458 555 expr log($f1*1.718+1);
#X obj 530 610 throw~ stockL;
#X obj 637 612 throw~ stockR;
#X obj 300 548 f;
#X obj 334 534 spigot;
#X obj 386 481 random 5;
#X obj 375 505 moses 2.5;
#X obj 196 137 t b b b;
#X obj 331 464 t f b;
#N canvas 285 175 601 529 compare 0;
#X obj 76 229 sel 0 1;
#X msg 184 228 1;
#X msg 136 323 0;
#X obj 228 508 outlet;
#X obj 90 15 r period;
#X obj 151 18 r cycleNum;
#X obj 278 13 r fbL;
#X obj 377 12 r fbR;
#X obj 102 155 expr (($f1 < 4) && ($f2 != 1)) && (($f3 == 0) && ($f4
== 0 ));
#X obj 352 84 f;
#X obj 250 92 f;
#X obj 113 118 f;
#X obj 461 55 t b f;
#X obj 331 108 t b f;
#X obj 202 122 t b f;
#X obj 452 102 f;
#X connect 0 0 2 0;
#X connect 0 1 1 0;
#X connect 1 0 3 0;
#X connect 2 0 3 0;
#X connect 4 0 11 1;
#X connect 5 0 10 1;
#X connect 6 0 9 1;
#X connect 7 0 12 0;
#X connect 8 0 0 0;
#X connect 9 0 13 0;
#X connect 10 0 14 0;
#X connect 11 0 8 0;
#X connect 12 0 9 0;
#X connect 12 1 15 1;
#X connect 13 0 10 0;
#X connect 13 0 15 0;
#X connect 13 1 8 2;
#X connect 14 0 11 0;
#X connect 14 1 8 1;
#X connect 15 0 8 3;
#X restore 490 55 pd compare;
#X obj 179 40 r stockTrig;
#X obj 471 261 sig~ 2;
#X obj 123 485 moses 1.5;
#X obj 215 74 metro 50;
#X obj 133 461 random 200;
#X floatatom 121 539 5 0 0 0 - - -;
#X obj 420 323 pvoc~ struk 2048 4;
#X obj 439 179 table struk;
#X msg 312 91 read -resize stockMusic.wav struk;
#X msg 418 225 setarray struk;
#X obj 68 222 import bsaylor;
#X connect 1 0 3 1;
#X connect 1 0 9 0;
#X connect 1 0 10 0;
#X connect 2 0 57 1;
#X connect 3 0 12 0;
#X connect 4 0 5 0;
#X connect 5 0 6 0;
#X connect 6 0 3 0;
#X connect 7 0 21 0;
#X connect 7 0 28 0;
#X connect 7 0 54 0;
#X connect 8 0 57 0;
#X connect 10 0 60 0;
#X connect 11 0 8 0;
#X connect 12 0 11 0;
#X connect 12 1 13 0;
#X connect 13 0 20 0;
#X connect 14 0 23 0;
#X connect 15 0 17 0;
#X connect 17 0 26 0;
#X connect 18 0 19 0;
#X connect 19 0 14 0;
#X connect 19 0 16 0;
#X connect 20 0 49 0;
#X connect 21 0 22 0;
#X connect 21 0 30 0;
#X connect 22 0 23 1;
#X connect 22 0 25 0;
#X connect 22 0 33 1;
#X connect 23 0 24 0;
#X connect 26 0 29 0;
#X connect 27 0 26 1;
#X connect 28 0 27 0;
#X connect 29 0 36 0;
#X connect 29 1 37 0;
#X connect 30 0 35 0;
#X connect 31 0 29 1;
#X connect 31 0 34 0;
#X connect 32 0 33 0;
#X connect 33 0 31 0;
#X connect 35 0 32 0;
#X connect 36 0 42 0;
#X connect 37 0 43 0;
#X connect 38 0 41 0;
#X connect 39 0 59 0;
#X connect 41 0 36 1;
#X connect 41 0 37 1;
#X connect 44 0 11 1;
#X connect 45 0 44 1;
#X connect 46 0 47 0;
#X connect 47 0 45 1;
#X connect 48 0 4 0;
#X connect 48 1 55 0;
#X connect 48 2 18 0;
#X connect 49 0 45 0;
#X connect 49 1 46 0;
#X connect 50 0 7 0;
#X connect 51 0 7 0;
#X connect 52 0 2 0;
#X connect 53 0 6 1;
#X connect 53 0 56 0;
#X connect 54 0 48 0;
#X connect 55 0 53 0;
#X connect 57 0 15 0;
#X connect 59 0 1 0;
#X connect 60 0 57 0;
#X coords 0 -1 1 1 85 60 2 100 100;
#X restore 408 385 pd stockTalk;
#X obj 331 -157 vsl 15 128 0 1 0 0 empty empty empty 0 -9 0 10 -262144
-1 -1 8700 1;
#X text 272 -184 ST;
#X obj 237 41 s stockGain;
#X obj 91 406 catch~ stockL;
#X obj 275 405 catch~ stockR;
#X obj 300 -156 vsl 15 128 0 1 0 0 empty empty empty 0 -9 0 10 -262144
-1 -1 12700 1;
#N canvas 224 242 1249 668 tabwriter 0;
#X obj 331 144 tabwrite~ record;
#X obj 394 22 receive~ sigL;
#X obj 440 35 receive~ sigR;
#X obj 674 109 r stsp;
#X obj 494 113 sel 0 1;
#X msg 344 94 stop;
#X msg 334 202 start;
#X obj 100 100 cnv 15 85 60 empty empty empty 20 12 0 14 -233017 -66577
0;
#X obj 518 523 lop~ 10;
#X obj 163 416 / 100000;
#X obj 171 454 spigot;
#X obj 110 110 tgl 15 0 empty empty empty 17 7 0 10 -262144 -1 -1 0
1;
#X obj 349 565 line~;
#X obj 352 394 bng 15 250 50 0 empty empty empty 17 7 0 10 -262144
-1 -1;
#X obj 221 802 pack;
#X obj 232 558 t f b;
#X obj 442 560 hip~ 30;
#X floatatom 613 471 5 0 0 0 - - -;
#X obj 457 587 lop~ 15000;
#X obj 591 262 random 2;
#X obj 525 448 spigot;
#X obj 515 476 line~;
#X floatatom 613 543 5 0 0 0 - - -;
#X obj 465 615 *~ 0;
#X obj 544 624 line;
#X msg 543 586 \$1 1000;
#X obj 657 464 pan~;
#X obj 671 271 random 90;
#X obj 678 350 line;
#X msg 671 307 \$1 1000;
#X obj 676 331 spigot;
#X floatatom 700 424 5 0 0 0 - - -;
#X obj 655 286 -45;
#X obj 553 755 *~ 0;
#X obj 665 746 *~ 0;
#X obj 553 707 expr log($f1*1.718+1);
#X obj 272 744 f;
#X obj 306 730 spigot;
#X obj 358 677 random 5;
#X obj 347 701 moses 2.5;
#X obj 168 333 t b b b;
#X obj 303 660 t f b;
#N canvas 279 184 601 529 compare 0;
#X obj 76 229 sel 0 1;
#X msg 184 228 1;
#X msg 136 323 0;
#X obj 228 508 outlet;
#X obj 90 15 r period;
#X obj 151 18 r cycleNum;
#X obj 102 155 expr (($f1 < 4) && ($f2 != 1)) && (($f3 == 0) && ($f4
== 0 ));
#X obj 352 84 f;
#X obj 250 92 f;
#X obj 113 118 f;
#X obj 461 55 t b f;
#X obj 331 108 t b f;
#X obj 202 122 t b f;
#X obj 452 102 f;
#X obj 278 13 r outL;
#X obj 377 12 r outR;
#X obj 259 222 == 4;
#X obj 270 274 ||;
#X connect 0 0 2 0;
#X connect 0 1 1 0;
#X connect 1 0 3 0;
#X connect 2 0 3 0;
#X connect 4 0 9 1;
#X connect 5 0 8 1;
#X connect 5 0 16 0;
#X connect 6 0 17 1;
#X connect 7 0 11 0;
#X connect 8 0 12 0;
#X connect 9 0 6 0;
#X connect 10 0 7 0;
#X connect 10 1 13 1;
#X connect 11 0 8 0;
#X connect 11 0 13 0;
#X connect 11 1 6 2;
#X connect 12 0 9 0;
#X connect 12 1 6 1;
#X connect 13 0 6 3;
#X connect 14 0 7 1;
#X connect 15 0 10 0;
#X connect 16 0 17 0;
#X connect 17 0 0 0;
#X restore 462 251 pd compare;
#X obj 151 236 r stockTrig;
#X obj 443 457 sig~ 2;
#X obj 95 681 moses 1.5;
#X obj 105 657 random 200;
#X floatatom 93 735 5 0 0 0 - - -;
#X msg 301 439 setarray record;
#X obj 502 806 throw~ memL;
#X obj 609 808 throw~ memR;
#X obj 599 640 r memGain;
#X text 113 133 memory;
#X obj 370 336 r init;
#X obj 427 192 bng 15 250 50 0 empty empty empty 17 7 0 10 -262144
-1 -1;
#X obj 474 187 bng 15 250 50 0 empty empty empty 17 7 0 10 -262144
-1 -1;
#X obj 347 502 pvoc~ record 2048 2;
#X obj 559 178 table record 1.323e+06;
#X obj 246 510 * 1.323e+06;
#X obj 289 23 receive~ dryOutL;
#X obj 534 25 receive~ dryOutR;
#X obj 451 325 metro 500;
#X obj 259 587 random 36;
#X obj 158 390 random 100000;
#X msg 558 410 \$1 500;
#X obj 532 360 random 60;
#X obj 229 91 delay~ 1.323e+06;
#X obj 187 270 metro 1000;
#X obj 337 302 metro 500;
#X obj 541 384 expr (($f1 + 1)/60) + 1.75;
#X obj 825 591 expr 200 + 10000 * 0.5 * (($f1+1)/3);
#X floatatom 829 528 20 0 0 0 - - -;
#X obj 197 608 f;
#X obj 177 644 -;
#X obj 169 542 t f b;
#X obj 772 468 samplerate~;
#X obj 371 589 pack;
#X obj 313 637 expr 200 + $f2 * 0.5 * (($f1+1)/3);
#X obj 361 56 *~ 0.25;
#X obj 529 780 *~ 0.05;
#X obj 669 785 *~ 0.05;
#X connect 1 0 78 0;
#X connect 2 0 78 0;
#X connect 3 0 4 0;
#X connect 4 0 5 0;
#X connect 4 0 54 0;
#X connect 4 1 6 0;
#X connect 4 1 55 0;
#X connect 5 0 0 0;
#X connect 6 0 0 0;
#X connect 8 0 56 1;
#X connect 9 0 10 0;
#X connect 10 0 58 0;
#X connect 11 0 61 0;
#X connect 11 0 25 0;
#X connect 11 0 67 0;
#X connect 11 0 68 0;
#X connect 12 0 56 0;
#X connect 13 0 48 0;
#X connect 13 0 75 0;
#X connect 14 0 12 0;
#X connect 15 0 14 0;
#X connect 15 1 62 0;
#X connect 16 0 18 0;
#X connect 18 0 23 0;
#X connect 19 0 20 1;
#X connect 19 0 22 0;
#X connect 19 0 30 1;
#X connect 20 0 21 0;
#X connect 21 0 8 0;
#X connect 23 0 26 0;
#X connect 24 0 23 1;
#X connect 25 0 24 0;
#X connect 26 0 33 0;
#X connect 26 1 34 0;
#X connect 27 0 32 0;
#X connect 28 0 26 1;
#X connect 28 0 31 0;
#X connect 29 0 30 0;
#X connect 30 0 28 0;
#X connect 32 0 29 0;
#X connect 33 0 79 0;
#X connect 34 0 80 0;
#X connect 35 0 33 1;
#X connect 35 0 34 1;
#X connect 36 0 14 1;
#X connect 37 0 36 1;
#X connect 38 0 39 0;
#X connect 39 0 37 1;
#X connect 40 0 63 0;
#X connect 40 1 46 0;
#X connect 41 0 37 0;
#X connect 41 1 38 0;
#X connect 42 0 11 0;
#X connect 43 0 11 0;
#X connect 44 0 8 0;
#X connect 45 0 10 1;
#X connect 45 0 47 0;
#X connect 46 0 45 0;
#X connect 48 0 56 0;
#X connect 51 0 35 0;
#X connect 53 0 13 0;
#X connect 56 0 16 0;
#X connect 58 0 15 0;
#X connect 58 0 74 0;
#X connect 59 0 78 0;
#X connect 60 0 78 0;
#X connect 61 0 19 0;
#X connect 61 0 27 0;
#X connect 62 0 76 0;
#X connect 63 0 9 0;
#X connect 64 0 20 0;
#X connect 65 0 69 0;
#X connect 66 0 0 0;
#X connect 67 0 40 0;
#X connect 68 0 65 0;
#X connect 69 0 64 0;
#X connect 69 0 17 0;
#X connect 72 0 73 1;
#X connect 73 0 71 0;
#X connect 74 0 73 0;
#X connect 74 0 72 1;
#X connect 74 1 72 0;
#X connect 75 0 76 1;
#X connect 76 0 77 0;
#X connect 77 0 41 0;
#X connect 78 0 66 0;
#X connect 78 0 0 0;
#X connect 79 0 49 0;
#X connect 80 0 50 0;
#X coords 0 -1 1 1 85 60 1 100 100;
#X restore 554 383 pd tabwriter;
#X obj 280 318 send~ sigL;
#X obj 523 319 send~ sigR;
#X obj 11 161 receive~ sigL;
#X obj 92 177 receive~ sigR;
#X text 295 -184 mem;
#X obj 256 16 s memGain;
#X obj 248 344 catch~ memL;
#X obj 299 365 catch~ memR;
#X obj 409 4 send~ dryOutL;
#X obj 463 26 send~ dryOutR;
#X obj 26 308 receive~ dryOutL;
#X obj 126 315 receive~ dryOutR;
#X obj 70 501 dac~ 1 2 8;
#X obj 371 -179 loadbang;
#X msg 302 -232 1;
#X connect 2 0 87 0;
#X connect 2 1 88 0;
#X connect 3 0 87 1;
#X connect 4 0 88 1;
#X connect 5 0 6 0;
#X connect 7 0 0 0;
#X connect 8 0 1 0;
#X connect 9 0 80 0;
#X connect 9 0 91 0;
#X connect 9 0 92 0;
#X connect 10 0 85 1;
#X connect 11 0 32 0;
#X connect 12 0 33 0;
#X connect 13 0 86 1;
#X connect 15 0 13 0;
#X connect 17 0 10 0;
#X connect 20 0 3 0;
#X connect 21 0 4 0;
#X connect 24 0 81 1;
#X connect 25 0 24 0;
#X connect 26 0 27 1;
#X connect 27 0 113 1;
#X connect 28 0 26 0;
#X connect 30 0 8 0;
#X connect 31 0 7 0;
#X connect 32 0 0 0;
#X connect 33 0 1 0;
#X connect 34 0 81 0;
#X connect 35 0 27 0;
#X connect 37 0 82 0;
#X connect 39 0 40 0;
#X connect 40 0 82 1;
#X connect 42 0 22 0;
#X connect 43 0 23 0;
#X connect 44 0 14 0;
#X connect 45 0 16 0;
#X connect 46 0 18 0;
#X connect 47 0 19 0;
#X connect 48 0 96 0;
#X connect 60 0 59 0;
#X connect 62 0 64 0;
#X connect 65 0 31 0;
#X connect 65 0 30 0;
#X connect 65 0 83 0;
#X connect 65 0 84 0;
#X connect 67 0 65 1;
#X connect 68 0 78 0;
#X connect 69 0 79 0;
#X connect 74 0 83 1;
#X connect 75 0 74 0;
#X connect 76 0 84 1;
#X connect 77 0 76 0;
#X connect 81 0 113 0;
#X connect 82 0 113 2;
#X connect 83 0 109 0;
#X connect 84 0 110 0;
#X connect 85 0 101 0;
#X connect 86 0 102 0;
#X connect 87 0 65 0;
#X connect 88 0 65 0;
#X connect 89 0 11 0;
#X connect 90 0 12 0;
#X connect 91 0 85 0;
#X connect 91 0 89 0;
#X connect 92 0 86 0;
#X connect 92 0 90 0;
#X connect 94 0 38 0;
#X connect 97 0 81 0;
#X connect 98 0 27 0;
#X connect 99 0 106 0;
#X connect 103 0 34 0;
#X connect 104 0 35 0;
#X connect 107 0 81 0;
#X connect 108 0 27 0;
#X connect 111 0 81 0;
#X connect 112 0 27 0;
#X connect 114 0 115 0;
#X connect 115 0 94 0;
#X connect 115 0 42 0;
#X connect 115 0 43 0;
#X connect 115 0 69 0;
#X connect 115 0 44 0;
#X connect 115 0 45 0;
#X connect 115 0 46 0;
#X connect 115 0 47 0;
#X connect 115 0 48 0;
#X connect 115 0 99 0;
